<svg xmlns="http://www.w3.org/2000/svg" viewBox="0 0 393.29 206.44"><defs><style>.cls-1{isolation:isolate;}.cls-12,.cls-2{fill:#353945;}.cls-3,.cls-7{fill:#87858a;}.cls-4{fill:#ffa904;}.cls-5{fill:#eb8a03;}.cls-6{fill:#5a6175;}.cls-7{mix-blend-mode:multiply;}.cls-8{fill:#ffcb04;}.cls-9{fill:#e88d03;}.cls-10{fill:#98d7f6;}.cls-11{fill:#fff;opacity:0.42;}.cls-12{stroke:#5a6175;stroke-width:2px;}.cls-12,.cls-13{stroke-miterlimit:10;}.cls-13{fill:none;stroke:#87858a;}</style></defs><g class="cls-1"><g id="OBJECTS"><polygon class="cls-2" points="198.52 47.66 146.19 38.39 130.65 17.7 141.81 10.14 198.52 47.66"/><polygon class="cls-3" points="141.5 12.82 139.37 16.24 187.88 47 190.01 43.58 141.5 12.82"/><rect class="cls-2" x="287.91" y="62.76" width="5.39" height="56.94" transform="translate(-17.86 258.88) rotate(-58.11)"/><rect class="cls-3" x="270.46" y="81.62" width="4.03" height="44.49" transform="translate(-94.1 111.19) rotate(-28.4)"/><rect class="cls-2" x="293.89" y="120.01" width="5.39" height="56.94" transform="translate(-112.41 128.03) rotate(-28.4)"/><path class="cls-4" d="M305.76,93A3,3,0,0,0,304,89.56L225.33,52a4.75,4.75,0,0,0-4.53.38l-9.39,6.63a4.75,4.75,0,0,0,.33,8.15l85.4,48.14a3,3,0,0,0,4.39-2.06Q303.44,103.1,305.76,93Z" transform="translate(-77.49 -30.9)"/><path class="cls-5" d="M301.51,94.91a3,3,0,0,0-1.82-3.43l-75.94-36a1.58,1.58,0,0,0-1.49.13l-8.51,6a1.58,1.58,0,0,0,.11,2.71l80.57,45.55a3,3,0,0,0,4.4-2Q300.09,101.36,301.51,94.91Z" transform="translate(-77.49 -30.9)"/><path class="cls-2" d="M222.24,62a2.65,2.65,0,1,1-3.19-2A2.65,2.65,0,0,1,222.24,62Z" transform="translate(-77.49 -30.9)"/><path class="cls-4" d="M220.47,56.49,101.76,69.35l3.33-7.86h0L212.56,30.9a1.79,1.79,0,0,1,.72.12l14.45,19.52L221.51,56A2,2,0,0,1,220.47,56.49Z" transform="translate(-77.49 -30.9)"/><polygon class="cls-5" points="30.28 33.63 134.16 4.05 145.32 19.13 142.02 22.04 30.05 34.17 30.28 33.63"/><polygon class="cls-6" points="16.65 89.45 9.84 87.43 1.82 70.58 0 41.92 29.11 31.75 35.02 34.85 34.27 39.2 26.96 81.5 16.65 89.45"/><polygon class="cls-6" points="25.53 92.69 16.65 89.45 7.19 70.94 10.82 46.85 34.27 39.2 25.53 92.69"/><polygon class="cls-2" points="23.42 87.52 16.65 89.45 7.19 70.94 10.82 46.85 21.86 39.92 23.42 87.52"/><path class="cls-3" d="M98.93,71.56h0a1.68,1.68,0,0,0,2,1.33l31-6-.64-3.3-31,6A1.69,1.69,0,0,0,98.93,71.56Z" transform="translate(-77.49 -30.9)"/><path class="cls-2" d="M205,51.58l.22,1.11a1.69,1.69,0,0,1-1.33,2L132,67.42,131.18,63,203,50.25A1.68,1.68,0,0,1,205,51.58Z" transform="translate(-77.49 -30.9)"/><path class="cls-4" d="M106.66,76.27a6.46,6.46,0,1,1-1.31-9A6.46,6.46,0,0,1,106.66,76.27Z" transform="translate(-77.49 -30.9)"/><path class="cls-2" d="M103.61,74a2.66,2.66,0,1,1-.54-3.71A2.65,2.65,0,0,1,103.61,74Z" transform="translate(-77.49 -30.9)"/><polygon class="cls-6" points="9.84 87.43 36.12 97.47 35.4 92.47 7.19 70.94 1.82 70.58 9.84 87.43"/><path class="cls-2" d="M216.33,49.17a2.65,2.65,0,1,1-3.42-1.54A2.65,2.65,0,0,1,216.33,49.17Z" transform="translate(-77.49 -30.9)"/><path class="cls-4" d="M357.58,161.42l-34.65,20.09-37.11-76.76a9.15,9.15,0,0,1,3.65-11.91l7-4a9.16,9.16,0,0,1,12.09,2.67Z" transform="translate(-77.49 -30.9)"/><path class="cls-5" d="M324.62,175.64,289.31,102a3.89,3.89,0,0,1,1.56-5l8.36-4.85a3.9,3.9,0,0,1,5.13,1.12L351.65,160Z" transform="translate(-77.49 -30.9)"/><path class="cls-2" d="M299.38,100.09a2.66,2.66,0,1,1-3.75.23A2.67,2.67,0,0,1,299.38,100.09Z" transform="translate(-77.49 -30.9)"/><path class="cls-6" d="M301.52,128.38h68.74a0,0,0,0,1,0,0v20.28a25.57,25.57,0,0,1-25.57,25.57H301.52a0,0,0,0,1,0,0V128.38A0,0,0,0,1,301.52,128.38Z"/><path class="cls-7" d="M297,133.64H362.9a0,0,0,0,1,0,0v14A19.92,19.92,0,0,1,343,167.54H297a0,0,0,0,1,0,0v-33.9A0,0,0,0,1,297,133.64Z"/><path class="cls-4" d="M385.4,113.44v91.68H299.23V178.91l22.07-52.67a22.67,22.67,0,0,1,20.4-12.8Z" transform="translate(-77.49 -30.9)"/><path class="cls-6" d="M371,118.47v40.8l-11.92,19.64H299.23l22.07-52.67a22.66,22.66,0,0,1,6.17-7.77Z" transform="translate(-77.49 -30.9)"/><path class="cls-2" d="M311.9,176.08a2.44,2.44,0,0,1-2.43-2.45,83.38,83.38,0,0,1,8.22-35.24l4.33-9a12.85,12.85,0,0,1,11.52-7.24H365a2.43,2.43,0,0,1,2.43,2.43v12.8a48.3,48.3,0,0,1-13.16,33.21l-4.41,4.7a2.42,2.42,0,0,1-1.77.76Z" transform="translate(-77.49 -30.9)"/><rect class="cls-8" x="221.74" y="152.97" width="86.17" height="21.27"/><rect class="cls-9" x="232.51" y="161.99" width="38.71" height="12.24"/><path class="cls-10" d="M352.54,169l-4.41,4.69H311.9a80.39,80.39,0,0,1,8-34.2l4.33-9a10.35,10.35,0,0,1,9.33-5.86H365v12.8A46.09,46.09,0,0,1,352.54,169Z" transform="translate(-77.49 -30.9)"/><polygon class="cls-11" points="239.28 142.76 253.33 142.76 273.07 94.22 259.23 94.22 239.28 142.76"/><polygon class="cls-11" points="256.12 142.76 261.35 142.76 281.09 94.22 276.07 94.22 256.12 142.76"/><path class="cls-9" d="M385.4,191.12h0c-.81,0,0-.66,0-1.47h0c0-.82-.81-1.48,0-1.48h0c.81,0,0,.66,0,1.48h0C385.4,190.46,386.21,191.12,385.4,191.12Z" transform="translate(-77.49 -30.9)"/><rect class="cls-6" x="270.61" y="90.5" width="5.6" height="52.26"/><polygon class="cls-4" points="333.95 141.25 301.52 141.25 301.52 101.42 307.91 82.54 315.36 87.57 317.74 89.17 325.81 115.08 333.95 141.25"/><polygon class="cls-6" points="326.66 117.79 309.69 118.24 309.69 87.57 315.36 87.57 317.74 89.17 326.66 117.79"/><rect class="cls-4" x="307.91" y="116.63" width="49.52" height="36.35"/><rect class="cls-9" x="307.91" y="141.25" width="49.52" height="11.73"/><rect class="cls-2" x="323.81" y="120.68" width="28.8" height="2.45"/><rect class="cls-2" x="323.81" y="125.93" width="28.8" height="2.45"/><rect class="cls-2" x="323.81" y="131.18" width="28.8" height="2.45"/><rect class="cls-2" x="221.74" y="170.33" width="135.69" height="7.12"/><path class="cls-12" d="M291.15,236.34H454.78a15,15,0,0,0,15-15h0a15,15,0,0,0-15-15H291.15a15,15,0,0,0-15,15h0A15,15,0,0,0,291.15,236.34Z" transform="translate(-77.49 -30.9)"/><path class="cls-13" d="M298.22,210.72H450.66a10.63,10.63,0,0,1,10.63,10.62h0A10.63,10.63,0,0,1,450.66,232H298.22" transform="translate(-77.49 -30.9)"/><circle class="cls-2" cx="454.28" cy="221.34" r="13" transform="translate(-106.98 44.41) rotate(-9.18)"/><circle class="cls-7" cx="454.28" cy="221.34" r="13" transform="translate(-106.98 44.41) rotate(-9.18)"/><circle class="cls-3" cx="376.8" cy="190.45" r="9.31"/><path class="cls-2" d="M447.28,221.34a7,7,0,1,0,7-7A7,7,0,0,0,447.28,221.34Z" transform="translate(-77.49 -30.9)"/><path class="cls-6" d="M454.28,225.82a4.48,4.48,0,1,0-4.48-4.48A4.49,4.49,0,0,0,454.28,225.82Z" transform="translate(-77.49 -30.9)"/><path class="cls-6" d="M314.07,228.88H293.82a7.54,7.54,0,0,1-7.54-7.54h0a7.55,7.55,0,0,1,7.54-7.54h20.25Z" transform="translate(-77.49 -30.9)"/><rect class="cls-3" x="240.24" y="187.8" width="120.06" height="5.9"/><path class="cls-3" d="M352.29,214.13a1.32,1.32,0,1,1-1.32-1.32A1.32,1.32,0,0,1,352.29,214.13Z" transform="translate(-77.49 -30.9)"/><path class="cls-3" d="M373,214.13a1.32,1.32,0,1,1-1.32-1.32A1.32,1.32,0,0,1,373,214.13Z" transform="translate(-77.49 -30.9)"/></g></g></svg>