<svg xmlns="http://www.w3.org/2000/svg" xmlns:xlink="http://www.w3.org/1999/xlink" viewBox="0 0 208.37 172.07"><defs><style>.cls-1,.cls-10{fill:none;}.cls-2{isolation:isolate;}.cls-3{fill:#23262e;}.cls-4,.cls-9{fill:#353945;}.cls-11,.cls-5{fill:#87858a;}.cls-6{fill:#ffa904;}.cls-7{fill:#eb8a03;}.cls-8{fill:#5a6175;}.cls-9{stroke:#5a6175;stroke-width:2px;}.cls-10,.cls-9{stroke-miterlimit:10;}.cls-10{stroke:#87858a;}.cls-11{mix-blend-mode:multiply;}.cls-12{clip-path:url(#clip-path);}.cls-13{fill:#98d7f6;}.cls-14{fill:#fff;opacity:0.42;}</style><clipPath id="clip-path" transform="translate(-34.15 -281.87)"><path class="cls-1" d="M138.92,397.1a4.74,4.74,0,0,1-4.74-4.74v-7.68a4.73,4.73,0,0,1,.69-2.46l18.07-29.81a4.79,4.79,0,0,1,4.05-2.28h17.36a4.74,4.74,0,0,1,4.73,4.49l1,19L165.12,397.1Z"/></clipPath></defs><g class="cls-2"><g id="OBJECTS"><rect class="cls-3" x="106.83" y="126.85" width="63.79" height="24.58"/><polygon class="cls-4" points="27.4 103.59 37.96 95.01 39.22 95.02 32.21 105.68 27.4 103.59"/><polygon class="cls-4" points="32.61 105.53 43.17 96.94 44.43 96.95 37.43 107.61 32.61 105.53"/><polygon class="cls-4" points="37.83 107.46 48.38 98.87 49.65 98.88 42.64 109.54 37.83 107.46"/><polygon class="cls-4" points="43.04 109.39 53.59 100.8 54.86 100.81 47.85 111.47 43.04 109.39"/><polygon class="cls-4" points="48.25 111.32 58.81 102.73 60.07 102.74 53.06 113.4 48.25 111.32"/><polygon class="cls-4" points="95.8 36.37 113.27 56.31 64.78 42.06 13.51 12.92 22.2 5.79 95.8 36.37"/><polygon class="cls-5" points="22.15 8.04 20.64 11.04 63.27 32.9 64.78 29.9 22.15 8.04"/><rect class="cls-4" x="117.15" y="300.18" width="4.49" height="47.49" transform="translate(-257.82 3.4) rotate(-63.34)"/><rect class="cls-5" x="110.05" y="313.07" width="3.06" height="37.1" transform="translate(353.96 264.12) rotate(146.38)"/><rect class="cls-4" x="132.95" y="343.1" width="4.09" height="47.49" transform="translate(416.38 315.7) rotate(146.38)"/><path class="cls-6" d="M56.22,288.56,53,388.09l-6.1-3.67h0L34.15,292.1a1.72,1.72,0,0,1,.19-.58l17.81-9.65,3.8,5.78A1.64,1.64,0,0,1,56.22,288.56Z" transform="translate(-34.15 -281.87)"/><polygon class="cls-7" points="15.54 100.7 3.24 11.46 16.99 4 19.01 7.07 15.95 100.95 15.54 100.7"/><polygon class="cls-8" points="60.04 118.47 57.58 123.85 42.73 128.51 18.85 126.67 13.85 101.44 17.09 96.92 20.6 98.05 54.68 109.03 60.04 118.47"/><polygon class="cls-8" points="63.75 111.51 60.04 118.47 43.66 124.12 24.18 118.31 20.6 98.05 63.75 111.51"/><polygon class="cls-4" points="63.75 111.51 60.04 118.47 42.73 128.51 22.91 117.73 30.44 101.12 63.75 111.51"/><path class="cls-5" d="M54.47,390.68h0a1.4,1.4,0,0,0,1.32-1.47l-1.35-26.33-2.8.15L53,389.36A1.4,1.4,0,0,0,54.47,390.68Z" transform="translate(-34.15 -281.87)"/><path class="cls-4" d="M50.34,300.78l.95,0a1.41,1.41,0,0,1,1.47,1.33l2.15,60.8-3.74.19L49,302.25A1.4,1.4,0,0,1,50.34,300.78Z" transform="translate(-34.15 -281.87)"/><path class="cls-6" d="M152.78,330.46a2.48,2.48,0,0,0-2.14-2.42L48.77,299.62a3.93,3.93,0,0,0-3.59,1.21l-6.27,7.26a4,4,0,0,0,1.9,6.53l110.33,37.83a2.49,2.49,0,0,0,3.14-2.55C154,344.15,152.89,336.22,152.78,330.46Z" transform="translate(-34.15 -281.87)"/><path class="cls-7" d="M149.73,332.87a2.48,2.48,0,0,0-2.16-2.41L48.18,302.68a1.33,1.33,0,0,0-1.19.41l-5.67,6.61a1.32,1.32,0,0,0,.63,2.17l105.91,36.71A2.49,2.49,0,0,0,151,346C150.82,342.37,149.83,336.54,149.73,332.87Z" transform="translate(-34.15 -281.87)"/><path class="cls-4" d="M48.27,308.33a2.21,2.21,0,1,1-3-1A2.21,2.21,0,0,1,48.27,308.33Z" transform="translate(-34.15 -281.87)"/><path class="cls-6" d="M59.26,384.85a5.39,5.39,0,1,1-7.63,0A5.39,5.39,0,0,1,59.26,384.85Z" transform="translate(-34.15 -281.87)"/><path class="cls-4" d="M57,387.1a2.22,2.22,0,1,1-3.13,0A2.21,2.21,0,0,1,57,387.1Z" transform="translate(-34.15 -281.87)"/><path class="cls-4" d="M53.27,293.28a2.21,2.21,0,1,1-3.13,0A2.21,2.21,0,0,1,53.27,293.28Z" transform="translate(-34.15 -281.87)"/><path class="cls-6" d="M192,380.7,164.74,400l-36.65-60.93a7.64,7.64,0,0,1,2.13-10.17L135.7,325a7.64,7.64,0,0,1,10.24,1.29Z" transform="translate(-34.15 -281.87)"/><path class="cls-7" d="M165.7,395,130.78,336.5a3.24,3.24,0,0,1,.91-4.31l6.58-4.66a3.24,3.24,0,0,1,4.34.54L187,379.94Z" transform="translate(-34.15 -281.87)"/><path class="cls-4" d="M139,334.18a2.22,2.22,0,1,1-3.1.47A2.23,2.23,0,0,1,139,334.18Z" transform="translate(-34.15 -281.87)"/><polygon class="cls-4" points="57.58 123.85 68.94 103.33 64.73 103.34 42.73 128.51 57.58 123.85"/><rect class="cls-4" x="102.48" y="131.36" width="74.13" height="9.82"/><path class="cls-9" d="M123.89,452.94H229a12.51,12.51,0,0,0,12.51-12.51h0A12.51,12.51,0,0,0,229,427.92H123.89a12.51,12.51,0,0,0-12.51,12.51h0A12.51,12.51,0,0,0,123.89,452.94Z" transform="translate(-34.15 -281.87)"/><path class="cls-10" d="M124.72,431.57H225.58a8.86,8.86,0,0,1,8.86,8.86h0a8.86,8.86,0,0,1-8.86,8.86H124.72" transform="translate(-34.15 -281.87)"/><circle class="cls-4" cx="228.6" cy="440.43" r="10.84" transform="translate(-299.19 209.1) rotate(-68.41)"/><circle class="cls-11" cx="228.6" cy="440.43" r="10.84" transform="translate(-299.19 209.1) rotate(-68.41)"/><circle class="cls-5" cx="228.6" cy="440.43" r="7.76" transform="translate(-129.52 -217.31) rotate(-13.33)"/><path class="cls-4" d="M222.76,440.43a5.84,5.84,0,1,0,5.84-5.84A5.84,5.84,0,0,0,222.76,440.43Z" transform="translate(-34.15 -281.87)"/><path class="cls-8" d="M228.6,444.17a3.74,3.74,0,1,0-3.74-3.74A3.75,3.75,0,0,0,228.6,444.17Z" transform="translate(-34.15 -281.87)"/><circle class="cls-4" cx="125.8" cy="440.43" r="10.84" transform="translate(-363.54 107.48) rotate(-67.66)"/><circle class="cls-11" cx="125.8" cy="440.43" r="10.84" transform="translate(-363.54 107.48) rotate(-67.66)"/><circle class="cls-5" cx="125.8" cy="440.43" r="7.76" transform="translate(-132.29 -241.01) rotate(-13.33)"/><path class="cls-4" d="M120,440.43a5.84,5.84,0,1,0,5.84-5.84A5.83,5.83,0,0,0,120,440.43Z" transform="translate(-34.15 -281.87)"/><path class="cls-8" d="M125.8,444.17a3.74,3.74,0,1,0-3.74-3.74A3.74,3.74,0,0,0,125.8,444.17Z" transform="translate(-34.15 -281.87)"/><rect class="cls-5" x="106.83" y="156.35" width="73.86" height="4.92"/><polygon class="cls-6" points="185 136.1 128.44 136.1 128.44 92.73 171.26 92.73 185 114.42 185 136.1"/><polygon class="cls-7" points="174.35 97.62 171.26 92.73 128.44 92.73 128.44 97.62 174.35 97.62"/><path class="cls-8" d="M185.88,387.8l-1.74-33.44a9.8,9.8,0,0,0-9.79-9.29H157a9.8,9.8,0,0,0-8.38,4.72l-18.08,29.8a9.82,9.82,0,0,0-1.42,5.09V418h39.81Z" transform="translate(-34.15 -281.87)"/><path class="cls-4" d="M138.92,399.12h27.94l15.29-24.61-1-20a6.76,6.76,0,0,0-6.76-6.41H157a6.81,6.81,0,0,0-5.78,3.25l-18.08,29.81a6.78,6.78,0,0,0-1,3.51v7.68A6.77,6.77,0,0,0,138.92,399.12Z" transform="translate(-34.15 -281.87)"/><g class="cls-12"><path class="cls-13" d="M138.92,397.1a4.74,4.74,0,0,1-4.74-4.74v-7.68a4.73,4.73,0,0,1,.69-2.46l18.07-29.81a4.79,4.79,0,0,1,4.05-2.28h17.36a4.74,4.74,0,0,1,4.73,4.49l1,19L165.12,397.1Z" transform="translate(-34.15 -281.87)"/><polygon class="cls-14" points="102.61 116.45 116.55 116.45 136.13 67.04 122.4 67.04 102.61 116.45"/><polygon class="cls-14" points="119.31 116.45 124.5 116.45 144.08 67.04 139.11 67.04 119.31 116.45"/></g><rect class="cls-4" x="131.72" y="68.27" width="2.12" height="47.17"/><rect class="cls-4" x="157.85" y="108.5" width="14.15" height="20"/><rect class="cls-8" x="159.22" y="111.28" width="11.4" height="1.76"/><rect class="cls-8" x="159.22" y="114.71" width="11.4" height="1.76"/><rect class="cls-8" x="159.22" y="118.15" width="11.4" height="1.76"/><rect class="cls-8" x="159.22" y="121.58" width="11.4" height="1.76"/><rect class="cls-8" x="159.22" y="125.01" width="11.4" height="1.76"/></g></g></svg>