<?xml version="1.0" encoding="utf-8"?><svg xmlns="http://www.w3.org/2000/svg" xmlns:xlink="http://www.w3.org/1999/xlink" width="1768" height="923" preserveAspectRatio="xMidYMid" viewBox="0 0 1768 923" style="z-index:1;margin-right:-2px;display:block;background-color:rgb(248, 250, 252);animation-play-state:paused" ><g transform="translate(884,461.5) scale(1,1) translate(-884,-461.5)" style="transform:matrix(1, 0, 0, 1, 0, 0);animation-play-state:paused" ><path id="path0" d="M 1223.804325232703 155.01446145962026
c 0 26.32384604387005 -6.440941053287352 7.561104714728631 -14.002045768015982 7.561104714728631
S 1195.800233696671 181.3383075034903 1195.800233696671 155.01446145962026
s 6.440941053287352 -7.561104714728631 14.002045768015982 -7.561104714728631
S 1223.804325232703 128.69061541575022 1223.804325232703 155.01446145962026
z" fill="none" stroke="none" style="animation-play-state:paused" ></path>


<circle cx="0" cy="0" r="7.296081372558146" fill="#f9ae5c" opacity="0.9" transform="translate(1196.4210205078125 144.67031860351562)" style="opacity:0.9;animation-play-state:paused" ></circle>
<path id="path1" d="M 893.6318993987871 638.2132973634004
c 0 25.00762689650903 -6.118887432124549 7.183041768146212 -13.301929200270761 7.183041768146212
S 867.0280409982457 663.2209242599095 867.0280409982457 638.2132973634004
s 6.118887432124549 -7.183041768146212 13.301929200270761 -7.183041768146212
S 893.6318993987871 613.2056704668914 893.6318993987871 638.2132973634004
z" fill="none" stroke="none" style="animation-play-state:paused" ></path>


<circle cx="0" cy="0" r="8.46793891019415" fill="#f9ae5c" opacity="0.9" transform="translate(883.8734130859375 646.6421508789062)" style="opacity:0.9;animation-play-state:paused" ></circle>
<path id="path2" d="M 466.5220277063664 569.7951030281544
c 0 28.65193895667351 -7.010580808547774 8.229812253512604 -15.240393062060377 8.229812253512604
S 436.0412415822456 598.4470419848278 436.0412415822456 569.7951030281544
s 7.010580808547774 -8.229812253512604 15.240393062060377 -8.229812253512604
S 466.5220277063664 541.1431640714809 466.5220277063664 569.7951030281544
z" fill="none" stroke="none" style="animation-play-state:paused" ></path>


<circle cx="0" cy="0" r="10.302430967805536" fill="#f9ae5c" opacity="0.9" transform="translate(442.27008056640625 583.4548950195312)" style="opacity:0.9;animation-play-state:paused" ></circle>
<path id="path3" d="M 1265.6802770853292 61.85098593995232
c 0 20.387928964188223 -4.988535810386479 5.856107255671085 -10.844643066057564 5.856107255671085
S 1243.990990953214 82.23891490414054 1243.990990953214 61.85098593995232
s 4.988535810386479 -5.856107255671085 10.844643066057564 -5.856107255671085
S 1265.6802770853292 41.46305697576409 1265.6802770853292 61.85098593995232
z" fill="none" stroke="none" style="animation-play-state:paused" ></path>


<circle cx="0" cy="0" r="8.872138370152113" fill="#0a0a0a" opacity="0.9" transform="translate(1260.08935546875 53.12189483642578)" style="opacity:0.9;animation-play-state:paused" ></circle>
<path id="path4" d="M 1018.5062947768107 666.1028266500024
c 0 27.444090718448894 -6.715043473663027 7.882877121256597 -14.597920594919625 7.882877121256597
S 989.3104535869714 693.5469173684513 989.3104535869714 666.1028266500024
s 6.715043473663027 -7.882877121256597 14.597920594919625 -7.882877121256597
S 1018.5062947768107 638.6587359315535 1018.5062947768107 666.1028266500024
z" fill="none" stroke="none" style="animation-play-state:paused" ></path>


<circle cx="0" cy="0" r="11.387708012024628" fill="#e4812f" opacity="0.9" transform="translate(1018.3702392578125 660.2008056640625)" style="opacity:0.9;animation-play-state:paused" ></circle>
<path id="path5" d="M 956.3574294122653 283.9018568095891
c 0 31.081152012866596 -7.604962726552464 8.927564939865938 -16.532527666418403 8.927564939865938
S 923.2923740794284 314.9830088224557 923.2923740794284 283.9018568095891
s 7.604962726552464 -8.927564939865938 16.532527666418403 -8.927564939865938
S 956.3574294122653 252.8207047967225 956.3574294122653 283.9018568095891
z" fill="none" stroke="none" style="animation-play-state:paused" ></path>


<circle cx="0" cy="0" r="8.870516405621537" fill="#28292f" opacity="0.9" transform="translate(924.3687744140625 270.1738586425781)" style="opacity:0.9;animation-play-state:paused" ></circle>
<path id="path6" d="M 1027.1788589385376 503.1432044174481
c 0 32.22076388613836 -7.883803929587045 9.254900265167402 -17.138704194754446 9.254900265167402
S 992.9014505490286 535.3639683035865 992.9014505490286 503.1432044174481
s 7.883803929587045 -9.254900265167402 17.138704194754446 -9.254900265167402
S 1027.1788589385376 470.92244053130975 1027.1788589385376 503.1432044174481
z" fill="none" stroke="none" style="animation-play-state:paused" ></path>


<circle cx="0" cy="0" r="7.21321234215276" fill="#28292f" opacity="0.9" transform="translate(1027.16357421875 500.8040771484375)" style="opacity:0.9;animation-play-state:paused" ></circle>
<path id="path7" d="M 1045.7655617383634 566.5182836043692
c 0 36.8945745825299 -9.027395908491357 10.59737780562029 -19.624773714111647 10.59737780562029
S 1006.5160143101402 603.4128581868991 1006.5160143101402 566.5182836043692
s 9.027395908491357 -10.59737780562029 19.624773714111647 -10.59737780562029
S 1045.7655617383634 529.6237090218393 1045.7655617383634 566.5182836043692
z" fill="none" stroke="none" style="animation-play-state:paused" ></path>


<circle cx="0" cy="0" r="8.582188035636314" fill="#f9ae5c" opacity="0.9" transform="translate(1045.7606201171875 567.9033203125)" style="opacity:0.9;animation-play-state:paused" ></circle>
<path id="path8" d="M 429.23046541495734 665.6117785838865
c 0 28.4620329410526 -6.964114443023507 8.17526478094064 -15.139379223964147 8.17526478094064
S 398.951706967029 694.0738115249391 398.951706967029 665.6117785838865
s 6.964114443023507 -8.17526478094064 15.139379223964147 -8.17526478094064
S 429.23046541495734 637.1497456428339 429.23046541495734 665.6117785838865
z" fill="none" stroke="none" style="animation-play-state:paused" ></path>


<circle cx="0" cy="0" r="7.36375189779618" fill="#28292f" opacity="0.9" transform="translate(416.1972961425781 674.2037963867188)" style="opacity:0.9;animation-play-state:paused" ></circle>
<path id="path9" d="M 329.523243173267 299.18804897995227
c 0 28.33633710109011 -6.933359077926303 8.139160656696095 -15.072519734622398 8.139160656696095
S 299.3782037040222 327.5243860810424 299.3782037040222 299.18804897995227
s 6.933359077926303 -8.139160656696095 15.072519734622398 -8.139160656696095
S 329.523243173267 270.85171187886215 329.523243173267 299.18804897995227
z" fill="none" stroke="none" style="animation-play-state:paused" ></path>


<circle cx="0" cy="0" r="8.10107849931472" fill="#f9ae5c" opacity="0.9" transform="translate(316.5296936035156 290.640869140625)" style="opacity:0.9;animation-play-state:paused" ></circle>
<path id="path10" d="M 869.2258413760662 471.1568851704457
c 0 19.504913749236394 -4.772478896089756 5.602475225844497 -10.374954121934252 5.602475225844497
S 848.4759331321977 490.6617989196821 848.4759331321977 471.1568851704457
s 4.772478896089756 -5.602475225844497 10.374954121934252 -5.602475225844497
S 869.2258413760662 451.65197142120934 869.2258413760662 471.1568851704457
z" fill="none" stroke="none" style="animation-play-state:paused" ></path>


<circle cx="0" cy="0" r="7.358041081261742" fill="#28292f" opacity="0.9" transform="translate(869.1163330078125 475.58099365234375)" style="opacity:0.9;animation-play-state:paused" ></circle>
<path id="path11" d="M 174.00251558709786 508.7684180599342
c 0 22.392327545099096 -5.478973761034885 6.431838762953996 -11.91081252398888 6.431838762953996
S 150.1808905391201 531.1607456050333 150.1808905391201 508.7684180599342
s 5.478973761034885 -6.431838762953996 11.91081252398888 -6.431838762953996
S 174.00251558709786 486.37609051483514 174.00251558709786 508.7684180599342
z" fill="none" stroke="none" style="animation-play-state:paused" ></path>


<circle cx="0" cy="0" r="6.2329926479362365" fill="#f9ae5c" opacity="0.9" transform="translate(165.0270538330078 516.1666259765625)" style="opacity:0.9;animation-play-state:paused" ></circle>
<path id="path12" d="M 88.25099136941222 595.328822626086
c 0 25.410980531886633 -6.217580342908431 7.298898663414246 -13.516479006322676 7.298898663414246
S 61.218033356766874 620.7398031579726 61.218033356766874 595.328822626086
s 6.217580342908431 -7.298898663414246 13.516479006322676 -7.298898663414246
S 88.25099136941222 569.9178420941994 88.25099136941222 595.328822626086
z" fill="none" stroke="none" style="animation-play-state:paused" ></path>


<circle cx="0" cy="0" r="11.675739162123682" fill="#28292f" opacity="0.9" transform="translate(61.54616928100586 603.3966064453125)" style="opacity:0.9;animation-play-state:paused" ></circle>
<path id="path13" d="M 1613.6140510203695 600.9076631728109
c 0 20.124190749500652 -4.92400411955867 5.780352662090613 -10.704356781649283 5.780352662090613
S 1592.205337457071 621.0318539223115 1592.205337457071 600.9076631728109
s 4.92400411955867 -5.780352662090613 10.704356781649283 -5.780352662090613
S 1613.6140510203695 580.7834724233103 1613.6140510203695 600.9076631728109
z" fill="none" stroke="none" style="animation-play-state:paused" ></path>


<circle cx="0" cy="0" r="7.749311870469761" fill="#e4812f" opacity="0.9" transform="translate(1602.15576171875 595.0488891601562)" style="opacity:0.9;animation-play-state:paused" ></circle>
<path id="path14" d="M 1637.2779507381856 104.19857671077315
c 0 28.335478650752727 -6.933149031567156 8.138914080535358 -15.072063112102514 8.138914080535358
S 1607.1338245139805 132.53405536152587 1607.1338245139805 104.19857671077315
s 6.933149031567156 -8.138914080535358 15.072063112102514 -8.138914080535358
S 1637.2779507381856 75.86309806002043 1637.2779507381856 104.19857671077315
z" fill="none" stroke="none" style="animation-play-state:paused" ></path>


<circle cx="0" cy="0" r="11.218930117901056" fill="#28292f" opacity="0.9" transform="translate(1636.10205078125 117.32978820800781)" style="opacity:0.9;animation-play-state:paused" ></circle>
<path id="path15" d="M 970.1939475865189 278.9366006022174
c 0 36.35329222488479 -8.894954480556917 10.441903085871164 -19.33685756642808 10.441903085871164
S 931.5202324536627 315.2898928271022 931.5202324536627 278.9366006022174
s 8.894954480556917 -10.441903085871164 19.33685756642808 -10.441903085871164
S 970.1939475865189 242.58330837733263 970.1939475865189 278.9366006022174
z" fill="none" stroke="none" style="animation-play-state:paused" ></path>


<circle cx="0" cy="0" r="10.504447596063608" fill="#28292f" opacity="0.9" transform="translate(931.601806640625 284.4437255859375)" style="opacity:0.9;animation-play-state:paused" ></circle>
<path id="path16" d="M 553.920990239326 667.8599968778044
c 0 26.299929781850025 -6.435089201942026 7.554235150105859 -13.989324352047884 7.554235150105859
S 525.9423415352302 694.1599266596544 525.9423415352302 667.8599968778044
s 6.435089201942026 -7.554235150105859 13.989324352047884 -7.554235150105859
S 553.920990239326 641.5600670959544 553.920990239326 667.8599968778044
z" fill="none" stroke="none" style="animation-play-state:paused" ></path>


<circle cx="0" cy="0" r="6.603968834263533" fill="#0a0a0a" opacity="0.9" transform="translate(538.1547241210938 659.9825439453125)" style="opacity:0.9;animation-play-state:paused" ></circle>
<path id="path17" d="M 926.8746330762814 92.45033721901817
c 0 21.756713591268642 -5.323451197863603 6.249268797492057 -11.57271999535566 6.249268797492057
S 903.72919308557 114.2070508102868 903.72919308557 92.45033721901817
s 5.323451197863603 -6.249268797492057 11.57271999535566 -6.249268797492057
S 926.8746330762814 70.69362362774953 926.8746330762814 92.45033721901817
z" fill="none" stroke="none" style="animation-play-state:paused" ></path>


<circle cx="0" cy="0" r="9.192397989308482" fill="#f9ae5c" opacity="0.9" transform="translate(903.8253173828125 87.99421691894531)" style="opacity:0.9;animation-play-state:paused" ></circle>
<path id="path18" d="M 368.81324361878296 459.0596756047488
c 0 33.899638278927384 -8.294592344843933 9.737130143947226 -18.03172248879116 9.737130143947226
S 332.74979864120064 492.9593138836762 332.74979864120064 459.0596756047488
s 8.294592344843933 -9.737130143947226 18.03172248879116 -9.737130143947226
S 368.81324361878296 425.1600373258214 368.81324361878296 459.0596756047488
z" fill="none" stroke="none" style="animation-play-state:paused" ></path>


<circle cx="0" cy="0" r="11.733356504458184" fill="#e4812f" opacity="0.9" transform="translate(359.59295654296875 444.4795837402344)" style="opacity:0.9;animation-play-state:paused" ></circle>
<path id="path19" d="M 657.1576663974546 756.8189057396305
c 0 18.835910587487298 -4.608786633108593 5.410314743214436 -10.019101376323029 5.410314743214436
S 637.1194636448084 775.6548163271178 637.1194636448084 756.8189057396305
s 4.608786633108593 -5.410314743214436 10.019101376323029 -5.410314743214436
S 657.1576663974546 737.9829951521432 657.1576663974546 756.8189057396305
z" fill="none" stroke="none" style="animation-play-state:paused" ></path>


<circle cx="0" cy="0" r="9.609148172816916" fill="#e4812f" opacity="0.9" transform="translate(640.4837646484375 747.2868041992188)" style="opacity:0.9;animation-play-state:paused" ></circle>
<path id="path20" d="M 937.6084564833093 591.3905581057278
c 0 25.301136461333023 -6.190703602241058 7.267347706978634 -13.458051309219691 7.267347706978634
S 910.6923538648698 616.6916945670608 910.6923538648698 591.3905581057278
s 6.190703602241058 -7.267347706978634 13.458051309219691 -7.267347706978634
S 937.6084564833093 566.0894216443947 937.6084564833093 591.3905581057278
z" fill="none" stroke="none" style="animation-play-state:paused" ></path>


<circle cx="0" cy="0" r="6.039131469072309" fill="#f9ae5c" opacity="0.9" transform="translate(923.1064453125 598.7772216796875)" style="opacity:0.9;animation-play-state:paused" ></circle>
<path id="path21" d="M 1616.2187111404678 740.7447359195716
c 0 29.321911920443068 -7.174510363512664 8.422251296297476 -15.596761659810142 8.422251296297476
S 1585.0251878208473 770.0666478400146 1585.0251878208473 740.7447359195716
s 7.174510363512664 -8.422251296297476 15.596761659810142 -8.422251296297476
S 1616.2187111404678 711.4228239991285 1616.2187111404678 740.7447359195716
z" fill="none" stroke="none" style="animation-play-state:paused" ></path>


<circle cx="0" cy="0" r="9.877076869226263" fill="#f9ae5c" opacity="0.9" transform="translate(1604.599365234375 730.9743041992188)" style="opacity:0.9;animation-play-state:paused" ></circle>
<path id="path22" d="M 638.9845501294533 625.3153183634239
c 0 23.353004737181646 -5.714033073991253 6.707777956424515 -12.421811030415768 6.707777956424515
S 614.1409280686216 648.6683231006056 614.1409280686216 625.3153183634239
s 5.714033073991253 -6.707777956424515 12.421811030415768 -6.707777956424515
S 638.9845501294533 601.9623136262422 638.9845501294533 625.3153183634239
z" fill="none" stroke="none" style="animation-play-state:paused" ></path>


<circle cx="0" cy="0" r="9.451238878368267" fill="#e4812f" opacity="0.9" transform="translate(614.9387817382812 615.0391235351562)" style="opacity:0.9;animation-play-state:paused" ></circle>
<path id="path23" d="M 42.86753205635581 150.63258972508575
c 0 20.582692272011123 -5.036190662300593 5.912049907918088 -10.948240570218681 5.912049907918088
S 20.971050915918454 171.21528199709687 20.971050915918454 150.63258972508575
s 5.036190662300593 -5.912049907918088 10.948240570218681 -5.912049907918088
S 42.86753205635581 130.04989745307464 42.86753205635581 150.63258972508575
z" fill="none" stroke="none" style="animation-play-state:paused" ></path>


<circle cx="0" cy="0" r="9.712962143339775" fill="#0a0a0a" opacity="0.9" transform="translate(42.194210052490234 141.68658447265625)" style="opacity:0.9;animation-play-state:paused" ></circle>
<path id="path24" d="M 1710.0510672736937 584.0897095447882
c 0 21.290196155448424 -5.209303314630997 6.1152691084798665 -11.324572423110864 6.1152691084798665
S 1687.401922427472 605.3799057002366 1687.401922427472 584.0897095447882
s 5.209303314630997 -6.1152691084798665 11.324572423110864 -6.1152691084798665
S 1710.0510672736937 562.7995133893398 1710.0510672736937 584.0897095447882
z" fill="none" stroke="none" style="animation-play-state:paused" ></path>


<circle cx="0" cy="0" r="6.842305948370377" fill="#f9ae5c" opacity="0.9" transform="translate(1687.5701904296875 589.6587524414062)" style="opacity:0.9;animation-play-state:paused" ></circle>
<path id="path25" d="M 844.3492522089764 277.83750092966426
c 0 21.8953780234592 -5.357379729144272 6.289097942908494 -11.646477672052766 6.289097942908494
S 821.0562968648708 299.7328789531235 821.0562968648708 277.83750092966426
s 5.357379729144272 -6.289097942908494 11.646477672052766 -6.289097942908494
S 844.3492522089764 255.94212290620504 844.3492522089764 277.83750092966426
z" fill="none" stroke="none" style="animation-play-state:paused" ></path>


<circle cx="0" cy="0" r="8.174462415717626" fill="#0a0a0a" opacity="0.9" transform="translate(822.5721435546875 266.5814208984375)" style="opacity:0.9;animation-play-state:paused" ></circle>
<path id="path26" d="M 480.4180466779113 511.80533668950875
c 0 33.219885941678605 -8.128269964453274 9.54188213218428 -17.670152096637555 9.54188213218428
S 445.07774248463625 545.0252226311874 445.07774248463625 511.80533668950875
s 8.128269964453274 -9.54188213218428 17.670152096637555 -9.54188213218428
S 480.4180466779113 478.5854507478301 480.4180466779113 511.80533668950875
z" fill="none" stroke="none" style="animation-play-state:paused" ></path>


<circle cx="0" cy="0" r="11.427479924346326" fill="#f9ae5c" opacity="0.9" transform="translate(445.1074523925781 508.5386047363281)" style="opacity:0.9;animation-play-state:paused" ></circle>
<path id="path27" d="M 1351.2107181296851 495.85502749917043
c 0 19.497428725608483 -4.7706474541382455 5.600325272249245 -10.37097272638749 5.600325272249245
S 1330.4687726769102 515.352456224779 1330.4687726769102 495.85502749917043
s 4.7706474541382455 -5.600325272249245 10.37097272638749 -5.600325272249245
S 1351.2107181296851 476.35759877356196 1351.2107181296851 495.85502749917043
z" fill="none" stroke="none" style="animation-play-state:paused" ></path>


<circle cx="0" cy="0" r="6.551874515391983" fill="#28292f" opacity="0.9" transform="translate(1343.6502685546875 502.45770263671875)" style="opacity:0.9;animation-play-state:paused" ></circle>
<path id="path28" d="M 696.4687433533342 545.3440160923022
c 0 28.523736826607692 -6.979212202255073 8.19298823742987 -15.172200439684943 8.19298823742987
S 666.1243424739642 573.8677529189099 666.1243424739642 545.3440160923022
s 6.979212202255073 -8.19298823742987 15.172200439684943 -8.19298823742987
S 696.4687433533342 516.8202792656946 696.4687433533342 545.3440160923022
z" fill="none" stroke="none" style="animation-play-state:paused" ></path>


<circle cx="0" cy="0" r="9.184588761662196" fill="#e4812f" opacity="0.9" transform="translate(675.6270141601562 556.1415405273438)" style="opacity:0.9;animation-play-state:paused" ></circle>
<path id="path29" d="M 159.73309111367456 603.5640045853369
c 0 33.92307709236312 -8.300327373663317 9.743862569083024 -18.04418994274634 9.743862569083024
S 123.64471122818189 637.4870816777 123.64471122818189 603.5640045853369
s 8.300327373663317 -9.743862569083024 18.04418994274634 -9.743862569083024
S 159.73309111367456 569.6409274929738 159.73309111367456 603.5640045853369
z" fill="none" stroke="none" style="animation-play-state:paused" ></path>


<circle cx="0" cy="0" r="10.077888123217678" fill="#28292f" opacity="0.9" transform="translate(159.7150115966797 606.1630249023438)" style="opacity:0.9;animation-play-state:paused" ></circle>
<path id="path30" d="M 1361.290672657641 903.010261393605
c 0 22.94227010742284 -5.613534175220481 6.589800988302305 -12.203335163522786 6.589800988302305
S 1336.8840023305954 925.9525315010278 1336.8840023305954 903.010261393605
s 5.613534175220481 -6.589800988302305 12.203335163522786 -6.589800988302305
S 1361.290672657641 880.0679912861822 1361.290672657641 903.010261393605
z" fill="none" stroke="none" style="animation-play-state:paused" ></path>


<circle cx="0" cy="0" r="9.580464363200024" fill="#e4812f" opacity="0.9" transform="translate(1336.8988037109375 901.0977172851562)" style="opacity:0.9;animation-play-state:paused" ></circle>
<path id="path31" d="M 699.763738336921 429.5347678970868
c 0 23.91609140267018 -5.851809598525682 6.869515615660584 -12.721325214186265 6.869515615660584
S 674.3210879085486 453.450859299757 674.3210879085486 429.5347678970868
s 5.851809598525682 -6.869515615660584 12.721325214186265 -6.869515615660584
S 699.763738336921 405.6186764944166 699.763738336921 429.5347678970868
z" fill="none" stroke="none" style="animation-play-state:paused" ></path>


<circle cx="0" cy="0" r="6.6195251101231705" fill="#e4812f" opacity="0.9" transform="translate(678.4763793945312 417.3545227050781)" style="opacity:0.9;animation-play-state:paused" ></circle>
<path id="path32" d="M 936.3138479862736 867.1161583697543
c 0 29.659596322487157 -7.257135270395793 8.519245752203759 -15.776381022599551 8.519245752203759
S 904.7610859410744 896.7757546922414 904.7610859410744 867.1161583697543
s 7.257135270395793 -8.519245752203759 15.776381022599551 -8.519245752203759
S 936.3138479862736 837.4565620472672 936.3138479862736 867.1161583697543
z" fill="none" stroke="none" style="animation-play-state:paused" ></path>


<circle cx="0" cy="0" r="8.8387676456769" fill="#0a0a0a" opacity="0.9" transform="translate(925.303466796875 877.4931030273438)" style="opacity:0.9;animation-play-state:paused" ></circle>
<path id="path33" d="M 951.0720123613349 342.43929650326265
c 0 33.1512388363426 -8.111473332296592 9.522164346609046 -17.63363767890564 9.522164346609046
S 915.8047370035237 375.59053533960525 915.8047370035237 342.43929650326265
s 8.111473332296592 -9.522164346609046 17.63363767890564 -9.522164346609046
S 951.0720123613349 309.28805766692005 951.0720123613349 342.43929650326265
z" fill="none" stroke="none" style="animation-play-state:paused" ></path>


<circle cx="0" cy="0" r="11.406536780930304" fill="#f9ae5c" opacity="0.9" transform="translate(950.838134765625 350.7152404785156)" style="opacity:0.9;animation-play-state:paused" ></circle>
<path id="path34" d="M 1350.307993970246 385.91353474774616
c 0 31.436470886545845 -7.691902450963344 9.029624616348276 -16.72152706731162 9.029624616348276
S 1316.8649398356226 417.350005634292 1316.8649398356226 385.91353474774616
s 7.691902450963344 -9.029624616348276 16.72152706731162 -9.029624616348276
S 1350.307993970246 354.4770638612003 1350.307993970246 385.91353474774616
z" fill="none" stroke="none" style="animation-play-state:paused" ></path>


<circle cx="0" cy="0" r="6.431620688041026" fill="#28292f" opacity="0.9" transform="translate(1331.7542724609375 395.2335205078125)" style="opacity:0.9;animation-play-state:paused" ></circle>
<path id="path35" d="M 1598.3168351344557 490.28711366454206
c 0 29.02458023258971 -7.10175899308046 8.336847513616194 -15.438606506696653 8.336847513616194
S 1567.4396221210623 519.3116938971318 1567.4396221210623 490.28711366454206
s 7.10175899308046 -8.336847513616194 15.438606506696653 -8.336847513616194
S 1598.3168351344557 461.26253343195236 1598.3168351344557 490.28711366454206
z" fill="none" stroke="none" style="animation-play-state:paused" ></path>


<circle cx="0" cy="0" r="8.49251012730043" fill="#e4812f" opacity="0.9" transform="translate(1573.874755859375 476.5532531738281)" style="opacity:0.9;animation-play-state:paused" ></circle>
<path id="path36" d="M 1328.713369010271 496.198649015193
c 0 33.030146883324 -8.081844450175021 9.487382615422852 -17.56922706559787 9.487382615422852
S 1293.574914879075 529.228795898517 1293.574914879075 496.198649015193
s 8.081844450175021 -9.487382615422852 17.56922706559787 -9.487382615422852
S 1328.713369010271 463.168502131869 1328.713369010271 496.198649015193
z" fill="none" stroke="none" style="animation-play-state:paused" ></path>


<circle cx="0" cy="0" r="10.644184564734555" fill="#28292f" opacity="0.9" transform="translate(1293.575927734375 496.71966552734375)" style="opacity:0.9;animation-play-state:paused" ></circle>
<path id="path37" d="M 1271.27180967044 760.7613853741343
c 0 26.196337556548425 -6.409742168091635 7.524479936455399 -13.934222104547034 7.524479936455399
S 1243.403365461346 786.9577229306827 1243.403365461346 760.7613853741343
s 6.409742168091635 -7.524479936455399 13.934222104547034 -7.524479936455399
S 1271.27180967044 734.5650478175859 1271.27180967044 760.7613853741343
z" fill="none" stroke="none" style="animation-play-state:paused" ></path>


<circle cx="0" cy="0" r="11.874508633835461" fill="#e4812f" opacity="0.9" transform="translate(1270.841064453125 769.8550415039062)" style="opacity:0.9;animation-play-state:paused" ></circle>
<path id="path38" d="M 542.0883569155508 60.67967857916676
c 0 35.63969361641933 -8.720350565719622 10.236933272801297 -18.95728383852092 10.236933272801297
S 504.17378923850896 96.31937219558608 504.17378923850896 60.67967857916676
s 8.720350565719622 -10.236933272801297 18.95728383852092 -10.236933272801297
S 542.0883569155508 25.039984962747432 542.0883569155508 60.67967857916676
z" fill="none" stroke="none" style="animation-play-state:paused" ></path>


<circle cx="0" cy="0" r="9.81653739608135" fill="#28292f" opacity="0.9" transform="translate(541.012939453125 45.551265716552734)" style="opacity:0.9;animation-play-state:paused" ></circle>
<path id="path39" d="M 1449.897214908781 373.68052828421145
c 0 25.87770870550173 -6.331779789644039 7.432958883495178 -13.764738673139217 7.432958883495178
S 1422.3677375625027 399.5582369897132 1422.3677375625027 373.68052828421145
s 6.331779789644039 -7.432958883495178 13.764738673139217 -7.432958883495178
S 1449.897214908781 347.8028195787097 1449.897214908781 373.68052828421145
z" fill="none" stroke="none" style="animation-play-state:paused" ></path>


<circle cx="0" cy="0" r="9.601956519932063" fill="#0a0a0a" opacity="0.9" transform="translate(1449.896240234375 373.4221496582031)" style="opacity:0.9;animation-play-state:paused" ></circle>
<path id="path40" d="M 342.93084424033214 61.16075523543461
c 0 37.16726563927837 -9.094118188334068 10.675703960218256 -19.769822148552326 10.675703960218256
S 303.39119994322743 98.32802087471298 303.39119994322743 61.16075523543461
s 9.094118188334068 -10.675703960218256 19.769822148552326 -10.675703960218256
S 342.93084424033214 23.993489596156238 342.93084424033214 61.16075523543461
z" fill="none" stroke="none" style="animation-play-state:paused" ></path>


<circle cx="0" cy="0" r="9.258051232160007" fill="#f9ae5c" opacity="0.9" transform="translate(304.6372375488281 44.89313507080078)" style="opacity:0.9;animation-play-state:paused" ></circle>
<path id="path41" d="M 507.92621948392764 300.0344686955744
c 0 24.490039827416066 -5.99224378755925 7.034373141917381 -13.026616929476631 7.034373141917381
S 481.8729856249744 324.52450852299046 481.8729856249744 300.0344686955744
s 5.99224378755925 -7.034373141917381 13.026616929476631 -7.034373141917381
S 507.92621948392764 275.5444288681583 507.92621948392764 300.0344686955744
z" fill="none" stroke="none" style="animation-play-state:paused" ></path>


<circle cx="0" cy="0" r="6.1592669290892985" fill="#f9ae5c" opacity="0.9" transform="translate(482.4531555175781 290.3934631347656)" style="opacity:0.9;animation-play-state:paused" ></circle></g></svg>