<svg id="OBJECTS" xmlns="http://www.w3.org/2000/svg" viewBox="0 0 204.26 128.43"><defs><style>.cls-1{fill:#5a6175;}.cls-2{fill:#353945;}.cls-3{fill:#eb8a03;}.cls-4{fill:#ffcb04;}.cls-5{fill:#272a33;}.cls-6{fill:#ffa904;}.cls-7{fill:#98d7f6;}.cls-8{fill:#fff;opacity:0.42;}</style></defs><rect class="cls-1" x="97.3" y="157.55" width="10.93" height="10.93" transform="translate(154.5 211.62) rotate(180)"/><rect class="cls-2" x="95.93" y="154.1" width="13.67" height="4.36" transform="translate(154.5 198.15) rotate(180)"/><rect class="cls-3" x="53.84" y="195.61" width="149.84" height="23.65" transform="translate(206.48 300.46) rotate(180)"/><rect class="cls-4" x="53.84" y="203.67" width="149.84" height="5.13" transform="translate(206.48 298.05) rotate(180)"/><rect class="cls-2" x="198.98" y="142.39" width="10.2" height="3.87" transform="translate(357.13 174.24) rotate(180)"/><rect class="cls-1" x="201.74" y="191.23" width="6.6" height="29.04" transform="translate(359.04 297.08) rotate(180)"/><polygon class="cls-2" points="157.3 112.68 197.83 112.68 204.26 108.34 157.3 108.34 157.3 112.68"/><path class="cls-2" d="M206.63,227.09h5.1v-79.8a2.55,2.55,0,0,0-2.55-2.55h0a2.55,2.55,0,0,0-2.55,2.55Z" transform="translate(-51.03 -114.41)"/><polygon class="cls-2" points="157.3 102.76 197.83 102.76 204.26 98.42 157.3 98.42 157.3 102.76"/><path class="cls-2" d="M206.63,217.17h5.1v-79.8a2.55,2.55,0,0,0-2.55-2.55h0a2.55,2.55,0,0,0-2.55,2.55Z" transform="translate(-51.03 -114.41)"/><rect class="cls-2" x="192.31" y="123.02" width="9.43" height="105.32" transform="translate(343.01 236.95) rotate(180)"/><rect class="cls-1" x="192.31" y="123.02" width="3.11" height="105.32" transform="translate(336.69 236.95) rotate(180)"/><rect class="cls-1" x="189.63" y="114.41" width="18.71" height="8.61" transform="translate(346.93 123.02) rotate(180)"/><rect class="cls-2" x="189.63" y="118.72" width="18.71" height="4.31" transform="translate(346.93 127.33) rotate(180)"/><rect class="cls-5" x="62.9" y="214.26" width="101.81" height="18.2" transform="translate(176.57 332.32) rotate(180)"/><rect class="cls-2" x="57.36" y="202.28" width="24.41" height="12.2" transform="translate(88.1 302.35) rotate(180)"/><rect class="cls-2" x="57.36" y="198.92" width="14.87" height="12.2" transform="translate(78.56 295.64) rotate(180)"/><rect class="cls-2" x="70.18" y="218.67" width="90.3" height="7.02" transform="translate(179.62 329.95) rotate(180)"/><polygon class="cls-6" points="22.83 86.76 91.56 86.76 91.56 51.4 37.29 51.4 22.83 69.08 22.83 86.76"/><path class="cls-1" d="M117.25,199.59l-4.12-4.12a5.38,5.38,0,0,1-1.57-4.09L114,143.61a5.39,5.39,0,0,1,5.37-5.1H170.8a5.39,5.39,0,0,1,5.14,3.79l11.14,35.89a5.44,5.44,0,0,1,.24,1.6v16a5.38,5.38,0,0,1-5.38,5.38H121.05A5.38,5.38,0,0,1,117.25,199.59Z" transform="translate(-51.03 -114.41)"/><path class="cls-2" d="M181.76,197.6a2,2,0,0,0,2-2V180.53a1.89,1.89,0,0,0-.1-.63l-12.12-36.45a2,2,0,0,0-1.89-1.37H124.52a7.19,7.19,0,0,0-7.18,6.82l-1.08,20.86a2,2,0,0,0,.66,1.6c6.28,5.56,23.93,21,29.62,25.78a2,2,0,0,0,1.27.46Z" transform="translate(-51.03 -114.41)"/><polygon class="cls-7" points="85.83 29.66 106.24 81.2 103.21 81.2 82.56 29.66 85.83 29.66"/><polygon class="cls-7" points="118.6 29.66 130.73 66.11 130.73 66.12 130.73 81.2 130.73 81.2 121.54 81.2 100.89 29.66 118.6 29.66"/><path class="cls-7" d="M118.25,169.87,119.33,149a5.19,5.19,0,0,1,5.19-4.92h3.61l20.42,51.53h-.74C142.2,190.94,124.53,175.44,118.25,169.87Z" transform="translate(-51.03 -114.41)"/><polygon class="cls-7" points="100.89 29.66 121.54 81.2 106.24 81.2 85.83 29.66 100.89 29.66"/><polygon class="cls-8" points="100.89 29.66 121.54 81.2 106.24 81.2 85.83 29.66 100.89 29.66"/><polygon class="cls-7" points="82.56 29.66 103.21 81.2 97.51 81.2 77.09 29.66 82.56 29.66"/><polygon class="cls-8" points="82.56 29.66 103.21 81.2 97.51 81.2 77.09 29.66 82.56 29.66"/><rect class="cls-2" x="144.36" y="142.96" width="3.53" height="52.65" transform="translate(241.22 224.16) rotate(180)"/><polygon class="cls-2" points="118.4 81.2 120.94 81.2 120.94 32.53 118.4 28.55 118.4 81.2"/><circle class="cls-2" cx="170.19" cy="222.61" r="19.03" transform="translate(-97.8 -69.15) rotate(-13.34)"/><circle class="cls-1" cx="170.19" cy="222.61" r="12.78" transform="translate(-97.86 -69.07) rotate(-13.36)"/><path class="cls-4" d="M160.57,222.61a9.62,9.62,0,1,0,9.62-9.61A9.62,9.62,0,0,0,160.57,222.61Z" transform="translate(-51.03 -114.41)"/><path class="cls-2" d="M170.19,228.76a6.15,6.15,0,1,0-6.16-6.15A6.16,6.16,0,0,0,170.19,228.76Z" transform="translate(-51.03 -114.41)"/><path class="cls-2" d="M161.25,240.68l-.06-1.57a.26.26,0,0,1,.35-.25l4.19,1.61a.26.26,0,0,1,.09.42L164.73,242a.27.27,0,0,1-.28.07l-3-1.17A.26.26,0,0,1,161.25,240.68Z" transform="translate(-51.03 -114.41)"/><path class="cls-2" d="M179.12,204.55l.06,1.57a.26.26,0,0,1-.35.25l-4.18-1.61a.26.26,0,0,1-.1-.42l1.1-1.13a.25.25,0,0,1,.27-.06l3,1.17A.25.25,0,0,1,179.12,204.55Z" transform="translate(-51.03 -114.41)"/><path class="cls-2" d="M152.12,213.68l1.57-.06a.26.26,0,0,1,.25.35l-1.61,4.18a.26.26,0,0,1-.42.09l-1.13-1.09a.27.27,0,0,1-.06-.27l1.17-3A.25.25,0,0,1,152.12,213.68Z" transform="translate(-51.03 -114.41)"/><path class="cls-2" d="M188.25,231.55l-1.57.06a.26.26,0,0,1-.25-.35l1.61-4.19a.26.26,0,0,1,.42-.09l1.13,1.09a.28.28,0,0,1,.06.28l-1.17,3A.26.26,0,0,1,188.25,231.55Z" transform="translate(-51.03 -114.41)"/><path class="cls-2" d="M151.09,229.07l1.07-1.15a.25.25,0,0,1,.42.07l1.83,4.1a.26.26,0,0,1-.23.36l-1.57,0a.26.26,0,0,1-.24-.15l-1.32-3A.24.24,0,0,1,151.09,229.07Z" transform="translate(-51.03 -114.41)"/><path class="cls-2" d="M189.28,216.16l-1.07,1.15a.26.26,0,0,1-.42-.07l-1.82-4.1a.25.25,0,0,1,.23-.36l1.57,0a.22.22,0,0,1,.23.15l1.33,3A.27.27,0,0,1,189.28,216.16Z" transform="translate(-51.03 -114.41)"/><path class="cls-2" d="M163.73,203.52l1.15,1.07a.25.25,0,0,1-.07.42l-4.1,1.82a.26.26,0,0,1-.36-.23l0-1.57a.25.25,0,0,1,.15-.23l3-1.33A.26.26,0,0,1,163.73,203.52Z" transform="translate(-51.03 -114.41)"/><path class="cls-2" d="M176.64,241.71l-1.15-1.07a.27.27,0,0,1,.07-.43l4.1-1.82a.26.26,0,0,1,.36.23l0,1.57a.23.23,0,0,1-.15.24l-3,1.32A.24.24,0,0,1,176.64,241.71Z" transform="translate(-51.03 -114.41)"/><path class="cls-2" d="M154.68,235.49l.58-1.46a.26.26,0,0,1,.42-.08l3.17,3.16a.26.26,0,0,1-.08.42l-1.46.59a.25.25,0,0,1-.28-.06l-2.3-2.3A.25.25,0,0,1,154.68,235.49Z" transform="translate(-51.03 -114.41)"/><path class="cls-2" d="M185.69,209.74l-.58,1.46a.26.26,0,0,1-.42.08l-3.17-3.17a.26.26,0,0,1,.08-.42l1.46-.58a.27.27,0,0,1,.28,0l2.3,2.3A.26.26,0,0,1,185.69,209.74Z" transform="translate(-51.03 -114.41)"/><path class="cls-2" d="M157.31,207.11l1.46.58a.26.26,0,0,1,.08.42l-3.17,3.17a.26.26,0,0,1-.42-.08l-.58-1.46a.26.26,0,0,1,0-.28l2.3-2.3A.27.27,0,0,1,157.31,207.11Z" transform="translate(-51.03 -114.41)"/><path class="cls-2" d="M183.06,238.12l-1.46-.59a.26.26,0,0,1-.08-.42l3.17-3.16a.26.26,0,0,1,.42.08l.58,1.46a.25.25,0,0,1-.05.27l-2.3,2.3A.25.25,0,0,1,183.06,238.12Z" transform="translate(-51.03 -114.41)"/><path class="cls-2" d="M150.12,220.75l1.44-.61a.25.25,0,0,1,.36.23v4.48a.26.26,0,0,1-.36.24l-1.44-.61a.26.26,0,0,1-.16-.24V221A.25.25,0,0,1,150.12,220.75Z" transform="translate(-51.03 -114.41)"/><path class="cls-2" d="M190.25,224.48l-1.44.61a.26.26,0,0,1-.36-.24v-4.48a.25.25,0,0,1,.36-.23l1.44.61a.25.25,0,0,1,.16.24v3.25A.26.26,0,0,1,190.25,224.48Z" transform="translate(-51.03 -114.41)"/><path class="cls-2" d="M172.05,202.54l.61,1.45a.26.26,0,0,1-.23.36h-4.49a.26.26,0,0,1-.23-.36l.61-1.45a.27.27,0,0,1,.24-.15h3.25A.27.27,0,0,1,172.05,202.54Z" transform="translate(-51.03 -114.41)"/><path class="cls-2" d="M168.32,242.68l-.61-1.44a.26.26,0,0,1,.23-.36h4.49a.26.26,0,0,1,.23.36l-.61,1.44a.25.25,0,0,1-.24.16h-3.25A.26.26,0,0,1,168.32,242.68Z" transform="translate(-51.03 -114.41)"/><circle class="cls-2" cx="74.6" cy="219.27" r="22.17" transform="translate(-99.42 -91.4) rotate(-13.28)"/><circle class="cls-1" cx="74.6" cy="219.27" r="14.89" transform="matrix(0.85, -0.53, 0.53, 0.85, -155.17, -42.44)"/><path class="cls-4" d="M63.4,219.27a11.2,11.2,0,1,0,11.2-11.2A11.19,11.19,0,0,0,63.4,219.27Z" transform="translate(-51.03 -114.41)"/><path class="cls-2" d="M74.6,226.44a7.17,7.17,0,1,0-7.17-7.17A7.18,7.18,0,0,0,74.6,226.44Z" transform="translate(-51.03 -114.41)"/><path class="cls-2" d="M64.19,240.32l-.07-1.83a.31.31,0,0,1,.41-.29l4.87,1.88a.29.29,0,0,1,.11.48l-1.27,1.32a.31.31,0,0,1-.32.07l-3.54-1.36A.29.29,0,0,1,64.19,240.32Z" transform="translate(-51.03 -114.41)"/><path class="cls-2" d="M85,198.22l.06,1.83a.3.3,0,0,1-.4.29l-4.88-1.88a.29.29,0,0,1-.11-.48L81,196.66a.33.33,0,0,1,.33-.07L84.82,198A.31.31,0,0,1,85,198.22Z" transform="translate(-51.03 -114.41)"/><path class="cls-2" d="M53.55,208.86l1.83-.07a.3.3,0,0,1,.29.41l-1.87,4.87a.3.3,0,0,1-.49.11L52,212.91a.31.31,0,0,1-.07-.32l1.36-3.54A.3.3,0,0,1,53.55,208.86Z" transform="translate(-51.03 -114.41)"/><path class="cls-2" d="M95.65,229.69l-1.83.06a.31.31,0,0,1-.29-.41l1.88-4.87a.29.29,0,0,1,.48-.11l1.32,1.27a.31.31,0,0,1,.07.33l-1.36,3.53A.3.3,0,0,1,95.65,229.69Z" transform="translate(-51.03 -114.41)"/><path class="cls-2" d="M52.35,226.79l1.25-1.34a.3.3,0,0,1,.49.09l2.12,4.77a.3.3,0,0,1-.26.42l-1.83,0a.31.31,0,0,1-.28-.18l-1.54-3.46A.31.31,0,0,1,52.35,226.79Z" transform="translate(-51.03 -114.41)"/><path class="cls-2" d="M96.85,211.75l-1.25,1.34a.3.3,0,0,1-.49-.08L93,208.23a.3.3,0,0,1,.27-.42l1.83,0a.28.28,0,0,1,.27.18l1.55,3.47A.32.32,0,0,1,96.85,211.75Z" transform="translate(-51.03 -114.41)"/><path class="cls-2" d="M67.08,197l1.34,1.25a.3.3,0,0,1-.08.49l-4.78,2.12a.29.29,0,0,1-.41-.26l0-1.83a.31.31,0,0,1,.18-.28L66.76,197A.29.29,0,0,1,67.08,197Z" transform="translate(-51.03 -114.41)"/><path class="cls-2" d="M82.12,241.52l-1.34-1.25a.3.3,0,0,1,.09-.49l4.77-2.12a.3.3,0,0,1,.42.27l0,1.83a.29.29,0,0,1-.18.27l-3.46,1.54A.31.31,0,0,1,82.12,241.52Z" transform="translate(-51.03 -114.41)"/><path class="cls-2" d="M56.53,234.27l.69-1.69a.29.29,0,0,1,.48-.1l3.7,3.69a.3.3,0,0,1-.1.49l-1.7.68a.29.29,0,0,1-.32-.06L56.6,234.6A.31.31,0,0,1,56.53,234.27Z" transform="translate(-51.03 -114.41)"/><path class="cls-2" d="M92.67,204.27,92,206a.31.31,0,0,1-.49.1l-3.69-3.7a.3.3,0,0,1,.1-.49l1.69-.68a.31.31,0,0,1,.33.07L92.61,204A.29.29,0,0,1,92.67,204.27Z" transform="translate(-51.03 -114.41)"/><path class="cls-2" d="M59.6,201.2l1.7.68a.3.3,0,0,1,.1.49l-3.7,3.7a.3.3,0,0,1-.48-.1l-.69-1.7a.29.29,0,0,1,.07-.32l2.68-2.68A.29.29,0,0,1,59.6,201.2Z" transform="translate(-51.03 -114.41)"/><path class="cls-2" d="M89.6,237.34l-1.69-.68a.3.3,0,0,1-.1-.49l3.69-3.69a.3.3,0,0,1,.49.1l.68,1.69a.31.31,0,0,1-.06.33l-2.68,2.68A.31.31,0,0,1,89.6,237.34Z" transform="translate(-51.03 -114.41)"/><path class="cls-2" d="M51.22,217.1l1.68-.72a.31.31,0,0,1,.42.28v5.22a.3.3,0,0,1-.42.28l-1.68-.72a.3.3,0,0,1-.19-.27v-3.79A.32.32,0,0,1,51.22,217.1Z" transform="translate(-51.03 -114.41)"/><path class="cls-2" d="M98,221.44l-1.69.72a.3.3,0,0,1-.41-.28v-5.22a.3.3,0,0,1,.41-.28l1.69.72a.31.31,0,0,1,.18.28v3.79A.29.29,0,0,1,98,221.44Z" transform="translate(-51.03 -114.41)"/><path class="cls-2" d="M76.77,195.89l.72,1.68a.3.3,0,0,1-.28.41H72a.29.29,0,0,1-.27-.41l.71-1.68a.32.32,0,0,1,.28-.19H76.5A.29.29,0,0,1,76.77,195.89Z" transform="translate(-51.03 -114.41)"/><path class="cls-2" d="M72.43,242.66,71.72,241a.29.29,0,0,1,.27-.41h5.22a.3.3,0,0,1,.28.41l-.72,1.69a.28.28,0,0,1-.27.18H72.71A.31.31,0,0,1,72.43,242.66Z" transform="translate(-51.03 -114.41)"/><rect class="cls-1" x="83.39" y="178.71" width="19.38" height="2.82" transform="translate(135.12 245.82) rotate(180)"/><rect class="cls-1" x="83.39" y="184.51" width="19.38" height="2.82" transform="translate(135.12 257.42) rotate(180)"/><rect class="cls-1" x="83.39" y="190.31" width="19.38" height="2.82" transform="translate(135.12 269.02) rotate(180)"/></svg>